<?xml version="1.0" encoding="UTF-8"?>
<svg width="744px" height="159px" viewBox="0 0 744 159" version="1.1" xmlns="http://www.w3.org/2000/svg" xmlns:xlink="http://www.w3.org/1999/xlink">
    <title>Group 2</title>
    <g id="Page-1" stroke="none" stroke-width="1" fill="none" fill-rule="evenodd">
        <g id="Group-2">
            <rect id="Rectangle-Copy" fill="#F72020" x="0" y="0" width="744" height="159"></rect>
            <g id="TUGIN.ART" transform="translate(46.772727, 34.534091)" fill="#FFFFFF" fill-rule="nonzero">
                <polygon id="Path" points="0 14.4546786 0 1.19318182 69.6140359 1.19318182 69.6140359 14.4546786 42.6482599 14.4546786 42.6482599 88.4659091 26.9657759 88.4659091 26.9657759 14.4546786"></polygon>
                <path d="M137.999996,1.19318182 L153.818311,1.19318182 L153.818311,58.2275391 C153.818311,64.4659979 152.345255,69.9559437 149.399144,74.6973766 C146.453032,79.4388095 142.323726,83.1405362 137.011226,85.8025568 C131.698726,88.4645774 125.494225,89.7955877 118.397723,89.7955877 C111.278582,89.7955877 105.062762,88.4645774 99.7502622,85.8025568 C94.4377622,83.1405362 90.314116,79.4388095 87.3793238,74.6973766 C84.4445315,69.9559437 82.9771354,64.4659979 82.9771354,58.2275391 L82.9771354,1.19318182 L98.7961162,1.19318182 L98.7961162,56.8978604 C98.7961162,60.5342241 99.5972304,63.7685325 101.199459,66.6007857 C102.801687,69.4330389 105.070086,71.6546076 108.004657,73.2654918 C110.939227,74.8763761 114.403582,75.6818182 118.397723,75.6818182 C122.403405,75.6818182 125.874974,74.8763761 128.812429,73.2654918 C131.749885,71.6546076 134.01551,69.4330389 135.609304,66.6007857 C137.203099,63.7685325 137.999996,60.5342241 137.999996,56.8978604 L137.999996,1.19318182 Z" id="Path"></path>
                <path d="M229.465714,29.0798118 C228.755486,26.7560369 227.78536,24.6779563 226.555335,22.84557 C225.32531,21.0131836 223.848038,19.4492409 222.123517,18.153742 C220.398997,16.8582431 218.434552,15.8724698 216.230184,15.1964222 C214.025816,14.5203746 211.608158,14.1823509 208.97721,14.1823509 C204.284384,14.1823509 200.108358,15.3641025 196.449134,17.7276056 C192.78991,20.0911088 189.917707,23.548473 187.832524,28.0996982 C185.747341,32.6509233 184.704749,38.2049006 184.704749,44.76163 C184.704749,51.3409979 185.741681,56.9176136 187.815545,61.4914773 C189.889408,66.0653409 192.772931,69.5396839 196.466113,71.9145064 C200.159295,74.2893288 204.443297,75.4767401 209.318119,75.4767401 C213.761479,75.4767401 217.609579,74.6231357 220.86242,72.9159268 C224.115261,71.208718 226.623695,68.7883967 228.387722,65.6549627 C230.151749,62.5215288 231.033762,58.8296786 231.033762,54.5794123 L234.613308,55.1593572 L210.886168,55.1593572 L210.886168,42.7840909 L246.306756,42.7840909 L246.306756,53.2497337 C246.306756,60.744407 244.717289,67.2132457 241.538356,72.65625 C238.359424,78.0992543 233.984424,82.2938121 228.413356,85.2399237 C222.842289,88.1860352 216.454572,89.6590909 209.250204,89.6590909 C201.216202,89.6590909 194.163645,87.8465687 188.092533,84.2215243 C182.021422,80.5964799 177.291308,75.4373446 173.902193,68.7441184 C170.513077,62.0508922 168.818519,54.1020064 168.818519,44.8974609 C168.818519,37.8693182 169.817054,31.5839178 171.814124,26.0412598 C173.811195,20.4986017 176.616592,15.7897949 180.230318,11.9148393 C183.844043,8.0398837 188.076997,5.08533825 192.929181,3.05120295 C197.781365,1.01706765 203.062571,0 208.772798,0 C213.602343,0 218.103742,0.706010298 222.276993,2.11803089 C226.450244,3.53005149 230.16329,5.52723278 233.416131,8.10957475 C236.668972,10.6919167 239.346528,13.7600985 241.448801,17.3141202 C243.551074,20.8681419 244.9318,24.7900391 245.59098,29.0798118 L229.465714,29.0798118 Z" id="Path"></path>
                <polygon id="Path" points="277.398418 1.19318182 277.398418 88.4659091 261.579437 88.4659091 261.579437 1.19318182"></polygon>
                <polygon id="Path" points="366.306922 1.19318182 366.306922 88.4659091 352.261734 88.4659091 311.114273 29.0118963 310.398497 29.0118963 310.398497 88.4659091 294.579516 88.4659091 294.579516 1.19318182 308.761867 1.19318182 349.806789 60.6811523 350.591146 60.6811523 350.591146 1.19318182"></polygon>
                <path d="M392.318198,89.4207209 C389.738742,89.4207209 387.528603,88.5058594 385.687783,86.6761364 C383.846963,84.8464134 382.932101,82.6360529 382.943099,80.045055 C382.932101,77.4882369 383.846963,75.2979625 385.687783,73.4742321 C387.528603,71.6505016 389.738742,70.7386364 392.318198,70.7386364 C394.82974,70.7386364 397.017351,71.6505016 398.881031,73.4742321 C400.744712,75.2979625 401.682101,77.4882369 401.693198,80.045055 C401.682101,81.7669123 401.243314,83.3380682 400.376837,84.7585227 C399.510359,86.1789773 398.373996,87.3111239 396.967746,88.1549627 C395.561496,88.9988015 394.011647,89.4207209 392.318198,89.4207209 Z" id="Path"></path>
                <path d="M429.546245,88.4659091 L412.670579,88.4659091 L443.420313,1.19318182 L462.921378,1.19318182 L493.671112,88.4659091 L476.795446,88.4659091 L453.511755,19.0909091 L452.829937,19.0909091 L429.546245,88.4659091 Z M430.091567,54.2385032 L476.114294,54.2385032 L476.114294,66.9546786 L430.091567,66.9546786 L430.091567,54.2385032 Z" id="Shape"></path>
                <path d="M505.193523,88.4659091 L505.193523,1.19318182 L537.955419,1.19318182 C544.637326,1.19318182 550.262326,2.35939719 554.830419,4.69182795 C559.398512,7.0242587 562.852991,10.2870872 565.193856,14.4803134 C567.534721,18.6735396 568.705153,23.5513583 568.705153,29.1137695 C568.705153,34.6988192 567.520516,39.5425692 565.151242,43.6450195 C562.781969,47.7474698 559.296195,50.9137518 554.693923,53.1438654 C550.09165,55.373979 544.43247,56.4890359 537.716384,56.4890359 L514.398734,56.4890359 L514.398734,43.3973278 L535.603013,43.3973278 C539.511927,43.3973278 542.717826,42.8491211 545.220711,41.7527077 C547.723597,40.6562944 549.575847,39.0469638 550.777463,36.9247159 C551.979079,34.802468 552.579887,32.1988192 552.579887,29.1137695 C552.579887,26.0171786 551.974751,23.3694735 550.764479,21.1706543 C549.554208,18.971835 547.693412,17.2914817 545.182093,16.1295943 C542.670774,14.9677069 539.443567,14.3867631 535.500474,14.3867631 L521.012504,14.3867631 L521.012504,88.4659091 L505.193523,88.4659091 Z M550.296062,48.9204545 L571.909832,88.4659091 L554.250474,88.4659091 L533.046195,48.9204545 L550.296062,48.9204545 Z" id="Shape"></path>
                <polygon id="Path" points="579.443873 14.4546786 579.443873 1.19318182 649.057908 1.19318182 649.057908 14.4546786 622.092133 14.4546786 622.092133 88.4659091 606.409649 88.4659091 606.409649 14.4546786"></polygon>
            </g>
        </g>
    </g>
</svg>