<?xml version="1.0" encoding="UTF-8"?>
<svg width="63px" height="52px" viewBox="0 0 63 52" version="1.1" xmlns="http://www.w3.org/2000/svg" xmlns:xlink="http://www.w3.org/1999/xlink">
    <title>Group 8</title>
    <g id="Page-1" stroke="none" stroke-width="1" fill="none" fill-rule="evenodd">
        <g id="Group-8" transform="translate(0.893610, 0.990514)" fill="#FEFEFE">
            <path d="M61.7755826,4.49344982 C60.6205826,9.80844982 59.3805826,15.5484498 58.1255826,21.2864498 C56.3055826,29.6104498 54.4845826,37.9354498 52.6385826,46.2544498 C52.3185826,47.6964498 52.1155826,49.2464498 50.7145826,50.1524498 C49.1205826,51.1844498 47.4835826,51.3774498 45.8515826,50.2084498 C39.6555826,45.7684498 33.4345826,41.3614498 27.2815826,36.8624498 C25.2235826,35.3574498 25.2825826,33.8844498 27.3075826,31.9274498 C32.9685826,26.4544498 38.6555826,21.0094498 44.3315826,15.5524498 C44.7505826,15.1504498 45.1675826,14.7474498 45.5835826,14.3434498 C46.0745826,13.8654498 46.6285826,13.2654498 46.1625826,12.6294498 C45.6095826,11.8764498 44.8385826,12.2534498 44.1725826,12.6754498 C41.0235826,14.6714498 37.8705826,16.6614498 34.7205826,18.6564498 C29.6105826,21.8914498 24.4555826,25.0594498 19.4125826,28.3954498 C16.8315826,30.1024498 14.3195826,30.4474498 11.4405826,29.2794498 C8.75858259,28.1914498 5.97658259,27.3504498 3.23458259,26.4114498 C1.74558259,25.9014498 0.0365825873,25.5774498 0,23.5294498 C-0.0354174127,21.5104498 1.60358259,21.0334498 3.08958259,20.4744498 C19.9835826,14.1144498 36.8775826,7.75544982 53.7725826,1.39644982 C54.7795826,1.01744982 55.7815826,0.618449822 56.8015826,0.275449822 C59.7195826,-0.707550178 61.9605826,0.996449822 61.7755826,4.49344982" id="Fill-6"></path>
        </g>
    </g>
</svg>